<svg width="130" height="100" viewBox="0 0 130 100" fill="none" xmlns="http://www.w3.org/2000/svg" role="img" aria-labelledby="logo1ImpTitle logo1ImpDesc">
  <title id="logo1ImpTitle">Setu Geospatial Logo</title>

  <!-- Bridge & Map Pointers --><g id="icon" transform="translate(10, 15)">
    <path d="M25 0 C11.19 0 0 11.19 0 25 C0 42.5 25 70 25 70 S50 42.5 50 25 C50 11.19 38.81 0 25 0 Z" stroke="#FF9933" stroke-width="4" fill="none"/>
    <circle cx="25" cy="25" r="7" stroke="#0032A0" stroke-width="3" fill="none"/>

    <path d="M75 0 C61.19 0 50 11.19 50 25 C50 42.5 75 70 75 70 S100 42.5 100 25 C100 11.19 88.81 0 75 0 Z" stroke="#FF9933" stroke-width="4" fill="none" transform="translate(10, 0)"/>
    <circle cx="85" cy="25" r="7" stroke="#0032A0" stroke-width="3" fill="none"/>

    <path d="M20 20 Q 57 -10, 90 20" stroke="#0032A0" stroke-width="3" fill="none" stroke-linecap="round"/>
  </g>

</svg>
